# xmcd
#
# Track frame offsets: 
#        225
#        20610
#        39470
#        60385
#        77277
#        95806
#        116036
#        129763
#        147216
#        167454
#        191203
#        213298
#
# Disc length: 2991 seconds
#
# Revision: 1
# Processed by: cddbd v1.5.2PL0 Copyright (c) Steve Scherf et al.
# Submitted via: ExactAudioCopy v0.95a4
#
DISCID=9b0bac0c
DTITLE=Vision - Till The End Of Time
DYEAR=1997
DGENRE=Rock
TTITLE0=Surrender To Love
TTITLE1=Season To Change
TTITLE2=Open Up Your Heart
TTITLE3=Look In Your Eyes
TTITLE4=From Birth To Eternity
TTITLE5=Till The End Of Time
TTITLE6=Not Foolin´ Me
TTITLE7=River Of Love
TTITLE8=I Belong To You
TTITLE9=Just Take A Walk
TTITLE10=Out Of Love
TTITLE11=Goodnight
EXTD=YEAR: 1997
EXTT0=
EXTT1=
EXTT2=
EXTT3=
EXTT4=
EXTT5=
EXTT6=
EXTT7=
EXTT8=
EXTT9=
EXTT10=
EXTT11=
PLAYORDER=
